<svg width="595" height="468" viewBox="0 0 595 468" fill="none" xmlns="http://www.w3.org/2000/svg">
<path opacity="0.4" d="M502.917 25.964C386.277 -29.54 334.826 122.239 254.396 147.212C174.036 183.747 96.5492 140.984 48.7035 177.641C-27.137 235.745 6.15026 337.394 54.7019 380.164C124.328 441.498 248.058 419.423 375.949 353.103C536.18 270.013 605.19 74.6316 502.917 25.964Z" fill="#98C3E8"/>
<path opacity="0.2" d="M115.308 86.4607C119.336 96.5315 107.252 112.242 89.9299 117.479C75.0252 121.985 60.5234 121.507 56.4951 111.033C52.9315 101.768 64.1488 91.6975 77.0394 86.4607C89.9299 81.224 111.28 76.39 115.308 86.4607Z" fill="#98C3E8"/>
<path opacity="0.2" d="M247.033 65.9163C243.898 57.9083 254.941 39.2214 268.626 35.1389C280.402 31.6261 291.434 23.3482 294.567 31.6758C297.338 39.0424 288.853 55.7042 278.663 59.8053C268.473 63.9064 250.168 73.9242 247.033 65.9163Z" fill="#98C3E8"/>
<path opacity="0.2" d="M238.004 462.474C234.869 454.466 244.468 442.051 258.153 437.969C269.929 434.456 281.366 434.896 284.499 443.223C287.271 450.59 278.38 458.534 268.19 462.635C258 466.736 241.138 470.482 238.004 462.474Z" fill="#98C3E8"/>
<path opacity="0.2" d="M379.623 421.655C373.101 406.323 393.888 372.256 422.323 364.453C446.79 357.739 486.299 371.471 492.817 387.414C498.584 401.518 460.817 399.185 439.645 407.027C418.473 414.868 386.144 436.986 379.623 421.655Z" fill="#98C3E8"/>
<mask id="mask0" mask-type="alpha" maskUnits="userSpaceOnUse" x="16" y="16" width="522" height="396">
<path d="M488.7 27.2C375.447 -22.8116 330.05 124.31 253.592 150.53C177.5 187.844 102.11 148.967 57.1912 185.489C-14.0101 243.381 20.5311 340.015 68.1821 379.709C136.516 436.632 254.56 411.983 375.447 344.749C526.903 260.515 588.004 71.0517 488.7 27.2Z" fill="#98C3E8"/>
</mask>
<g mask="url(#mask0)">
<rect x="-68.8521" y="-48.1636" width="648.685" height="549.044" fill="url(#paint0_linear)"/>
<path d="M12.9963 126.717C72.476 156.711 139.073 240.667 139.073 280.755C139.073 330.067 34.5174 405.645 -13.4392 448.518L395.802 474.953C381.229 409.712 344.433 264.672 366.825 232.459C395.802 190.772 513.067 200.94 578.817 208.565L596.61 23.0088C564.582 36.396 492.902 74.863 453.757 64.6955C417.523 55.2841 348.015 14.7054 318.529 -11.0522" stroke="white" stroke-opacity="0.2" stroke-width="15"/>
<path d="M166.017 80.9636C182.285 165.693 226.514 321.018 273.284 264.487C331.747 193.823 378.009 102.315 421.729 162.812C456.705 211.209 508.153 306.682 529.505 348.368" stroke="white" stroke-opacity="0.2" stroke-width="15"/>
<path fill-rule="evenodd" clip-rule="evenodd" d="M349.352 130.369C349.352 133.928 346.466 136.814 342.907 136.814C339.347 136.814 336.461 133.928 336.461 130.369C336.461 126.809 339.347 123.924 342.907 123.924C346.466 123.924 349.352 126.809 349.352 130.369ZM82.6787 269.748C86.2383 269.748 89.1239 266.862 89.1239 263.303C89.1239 259.743 86.2383 256.857 82.6787 256.857C79.119 256.857 76.2334 259.743 76.2334 263.303C76.2334 266.862 79.119 269.748 82.6787 269.748ZM222.863 351.925C226.423 351.925 229.309 349.039 229.309 345.48C229.309 341.92 226.423 339.034 222.863 339.034C219.304 339.034 216.418 341.92 216.418 345.48C216.418 349.039 219.304 351.925 222.863 351.925ZM443.614 256.857C447.174 256.857 450.059 253.972 450.059 250.412C450.059 246.852 447.174 243.967 443.614 243.967C440.054 243.967 437.169 246.852 437.169 250.412C437.169 253.972 440.054 256.857 443.614 256.857Z" fill="white" fill-opacity="0.6"/>
<circle cx="58.5089" cy="333.395" r="13.7245" stroke="white" stroke-opacity="0.4" stroke-width="8"/>
<circle cx="525.791" cy="110.227" r="13.7245" stroke="white" stroke-opacity="0.4" stroke-width="8"/>
<circle cx="324.376" cy="297.946" r="13.7245" stroke="white" stroke-opacity="0.4" stroke-width="8"/>
</g>
<g filter="url(#filter0_d)">
<rect x="438.926" y="101.167" width="70.898" height="70.898" rx="10" fill="white"/>
</g>
<path d="M471.153 149.507V139.839H477.598V149.507H485.654V136.616H490.488L474.375 122.115L458.262 136.616H463.096V149.507H471.153Z" fill="#5A98D0"/>
<g filter="url(#filter1_d)">
<path d="M428.793 14H406.694C403.644 14 401.172 16.1194 401.172 18.7338V37.6796C401.172 40.294 403.644 42.4133 406.694 42.4133H428.793C431.843 42.4133 434.315 40.294 434.315 37.6796V18.7338C434.315 16.1194 431.843 14 428.793 14Z" fill="#56CCF2"/>
</g>
<path d="M426.036 27.2136H422.676L425.287 24.9604L424.151 23.9728L420.396 27.2136H418.785V25.8227L422.539 22.5819L421.395 21.6014L418.785 23.8546V20.9546H417.174V23.8546L414.563 21.6014L413.419 22.5819L417.174 25.8227V27.2136H415.562L411.808 23.9728L410.672 24.9604L413.282 27.2136H409.923V28.6045H413.282L410.672 30.8578L411.808 31.8453L415.562 28.6045H417.174V29.9954L413.419 33.2362L414.563 34.2168L417.174 31.9635V34.8636H418.785V31.9635L421.395 34.2168L422.539 33.2362L418.785 29.9954V28.6045H420.396L424.151 31.8453L425.287 30.8578L422.676 28.6045H426.036V27.2136Z" fill="white"/>
<g filter="url(#filter2_d)">
<path d="M568.866 85.6311H546.767C543.717 85.6311 541.245 87.7505 541.245 90.3649V109.311C541.245 111.925 543.717 114.044 546.767 114.044H568.866C571.916 114.044 574.388 111.925 574.388 109.311V90.3649C574.388 87.7505 571.916 85.6311 568.866 85.6311Z" fill="#F2C94C"/>
</g>
<path d="M565.415 97.4541C565.415 93.9769 562.192 91.1951 558.164 91.1951C554.135 91.1951 550.913 93.9769 550.913 97.4541C550.913 99.61 552.202 101.557 554.135 102.67V104.409C554.135 105.313 554.78 106.078 555.747 106.356V106.495C555.747 107.677 556.794 108.581 558.164 108.581C559.533 108.581 560.581 107.677 560.581 106.495V106.356C561.548 106.078 562.192 105.313 562.192 104.409V102.67C564.126 101.557 565.415 99.61 565.415 97.4541ZM552.524 97.4541C552.524 94.7419 555.022 92.586 558.164 92.586C561.306 92.586 563.803 94.7419 563.803 97.4541C563.803 99.8882 561.709 101.905 558.969 102.253V100.514L560.339 99.3318C560.661 99.0536 560.661 98.6364 560.339 98.3582C560.017 98.08 559.533 98.08 559.211 98.3582L558.164 99.2623L557.116 98.3582C556.794 98.08 556.311 98.08 555.988 98.3582C555.666 98.6364 555.666 99.0536 555.988 99.3318L557.358 100.514V102.253C554.619 101.905 552.524 99.8882 552.524 97.4541ZM558.164 107.19C557.68 107.19 557.358 106.912 557.358 106.495H558.969C558.969 106.912 558.647 107.19 558.164 107.19ZM560.581 104.409C560.581 104.826 560.258 105.104 559.775 105.104H556.552C556.069 105.104 555.747 104.826 555.747 104.409V103.365C556.472 103.574 557.278 103.713 558.164 103.713C559.05 103.713 559.856 103.574 560.581 103.365V104.409Z" fill="white"/>
<g filter="url(#filter3_d)">
<path d="M391.622 85.6311H369.522C366.472 85.6311 364 87.7505 364 90.3649V109.311C364 111.925 366.472 114.044 369.522 114.044H391.622C394.671 114.044 397.143 111.925 397.143 109.311V90.3649C397.143 87.7505 394.671 85.6311 391.622 85.6311Z" fill="#F58A8A"/>
</g>
<g clip-path="url(#clip0)">
<path d="M385.753 96.7588H384.947V95.3679C384.947 93.4484 383.142 91.8906 380.919 91.8906C378.695 91.8906 376.89 93.4484 376.89 95.3679V96.7588H376.085C375.198 96.7588 374.473 97.3847 374.473 98.1497V105.104C374.473 105.869 375.198 106.495 376.085 106.495H385.753C386.639 106.495 387.364 105.869 387.364 105.104V98.1497C387.364 97.3847 386.639 96.7588 385.753 96.7588ZM380.919 103.018C380.032 103.018 379.307 102.392 379.307 101.627C379.307 100.862 380.032 100.236 380.919 100.236C381.805 100.236 382.53 100.862 382.53 101.627C382.53 102.392 381.805 103.018 380.919 103.018ZM383.416 96.7588H378.421V95.3679C378.421 94.1786 379.541 93.212 380.919 93.212C382.296 93.212 383.416 94.1786 383.416 95.3679V96.7588Z" fill="white"/>
</g>
<g filter="url(#filter4_d)">
<path d="M531.806 14H509.707C506.657 14 504.185 16.1194 504.185 18.7338V37.6796C504.185 40.294 506.657 42.4133 509.707 42.4133H531.806C534.856 42.4133 537.328 40.294 537.328 37.6796V18.7338C537.328 16.1194 534.856 14 531.806 14Z" fill="#6FCF97"/>
</g>
<path d="M525.382 24.3596H512.225V31.4579H525.382V24.3596Z" fill="white"/>
<path d="M528.928 25.7722L526.024 26.8259V29.0218L528.928 30.0755H529.982V25.7722H528.928Z" fill="white"/>
<rect opacity="0.8" x="25.5669" y="76" width="318.433" height="246.512" rx="5" fill="url(#paint1_linear)"/>
<path d="M25.5669 81C25.5669 78.2386 27.8055 76 30.5669 76H117.626V322.512H30.5669C27.8055 322.512 25.5669 320.274 25.5669 317.512V81Z" fill="white"/>
<ellipse cx="39.9167" cy="91.6266" rx="4.78337" ry="5.20889" fill="#FA9595"/>
<ellipse cx="55.4626" cy="91.6266" rx="4.78337" ry="5.20889" fill="#FDF397"/>
<ellipse cx="69.8129" cy="91.6266" rx="4.78337" ry="5.20889" fill="#C1FEBB"/>
<path opacity="0.4" fill-rule="evenodd" clip-rule="evenodd" d="M36.3298 214.035H105.689V223.151H36.3298V214.035ZM36.3291 232.266H105.688V241.382H36.3291V232.266ZM82.9669 253.102H36.3291V262.218H82.9669V253.102Z" fill="#5A98D0"/>
<path opacity="0.1" fill-rule="evenodd" clip-rule="evenodd" d="M247.993 108.555H317.352V117.671H247.993V108.555ZM247.993 126.787H317.352V135.902H247.993V126.787ZM294.631 147.622H247.993V156.737H294.631V147.622Z" fill="black"/>
<g filter="url(#filter5_d)">
<rect x="16" y="109.857" width="96.8632" height="65.1111" rx="5" fill="#56CCF2"/>
</g>
<path d="M42.0403 138.165C42.0403 137.827 41.8997 137.569 41.6184 137.392C41.3424 137.215 40.8814 137.059 40.2356 136.923C39.5898 136.788 39.0507 136.616 38.6184 136.407C37.6705 135.949 37.1965 135.285 37.1965 134.415C37.1965 133.686 37.5038 133.077 38.1184 132.587C38.733 132.098 39.5142 131.853 40.4622 131.853C41.4726 131.853 42.2877 132.103 42.9075 132.603C43.5325 133.103 43.845 133.751 43.845 134.548H41.9465C41.9465 134.184 41.8111 133.881 41.5403 133.642C41.2694 133.397 40.9101 133.275 40.4622 133.275C40.0455 133.275 39.7043 133.371 39.4387 133.564C39.1783 133.756 39.0481 134.014 39.0481 134.337C39.0481 134.629 39.1705 134.855 39.4153 135.017C39.6601 135.178 40.1549 135.342 40.8997 135.509C41.6444 135.67 42.2278 135.866 42.6497 136.095C43.0767 136.319 43.3918 136.59 43.595 136.907C43.8033 137.225 43.9075 137.611 43.9075 138.064C43.9075 138.824 43.5924 139.441 42.9622 139.915C42.3319 140.384 41.5064 140.618 40.4856 140.618C39.7929 140.618 39.1757 140.493 38.634 140.243C38.0924 139.993 37.6705 139.65 37.3684 139.212C37.0663 138.775 36.9153 138.303 36.9153 137.798H38.759C38.7851 138.246 38.9543 138.592 39.2668 138.837C39.5793 139.077 39.9934 139.197 40.509 139.197C41.009 139.197 41.3892 139.103 41.6497 138.915C41.9101 138.723 42.0403 138.473 42.0403 138.165ZM48.3872 140.462H46.4887V132.009H48.3872V140.462ZM46.3715 129.814C46.3715 129.522 46.4627 129.28 46.645 129.087C46.8325 128.894 47.0981 128.798 47.4418 128.798C47.7856 128.798 48.0512 128.894 48.2387 129.087C48.4262 129.28 48.52 129.522 48.52 129.814C48.52 130.1 48.4262 130.34 48.2387 130.532C48.0512 130.72 47.7856 130.814 47.4418 130.814C47.0981 130.814 46.8325 130.72 46.645 130.532C46.4627 130.34 46.3715 130.1 46.3715 129.814ZM53.6403 129.954V132.009H55.1325V133.415H53.6403V138.134C53.6403 138.457 53.7028 138.691 53.8278 138.837C53.958 138.978 54.1872 139.048 54.5153 139.048C54.734 139.048 54.9554 139.022 55.1793 138.97V140.439C54.7471 140.559 54.3304 140.618 53.9293 140.618C52.471 140.618 51.7418 139.814 51.7418 138.204V133.415H50.3512V132.009H51.7418V129.954H53.6403ZM61.1122 140.618C59.909 140.618 58.9325 140.241 58.1825 139.486C57.4377 138.725 57.0653 137.715 57.0653 136.454V136.22C57.0653 135.376 57.2267 134.624 57.5497 133.962C57.8778 133.295 58.3361 132.777 58.9247 132.407C59.5132 132.038 60.1694 131.853 60.8934 131.853C62.0444 131.853 62.9325 132.22 63.5575 132.954C64.1877 133.689 64.5028 134.728 64.5028 136.072V136.837H58.9793C59.0366 137.535 59.2684 138.087 59.6747 138.493C60.0861 138.9 60.6017 139.103 61.2215 139.103C62.0913 139.103 62.7997 138.751 63.3465 138.048L64.37 139.025C64.0314 139.53 63.5783 139.923 63.0106 140.204C62.4481 140.48 61.8153 140.618 61.1122 140.618ZM60.8856 133.376C60.3648 133.376 59.9429 133.559 59.62 133.923C59.3023 134.288 59.0991 134.795 59.0106 135.447H62.6278V135.306C62.5861 134.67 62.4168 134.191 62.12 133.868C61.8231 133.54 61.4116 133.376 60.8856 133.376Z" fill="white"/>
<rect x="137.976" y="99.4397" width="94.4715" height="100.271" rx="5" fill="#EB5757"/>
<g clip-path="url(#clip1)">
<path d="M175.047 131.995V168.457L201.356 150.226L175.047 131.995Z" fill="white"/>
</g>
<g filter="url(#filter6_d)">
<rect x="137.976" y="216.64" width="184.16" height="82.04" rx="5" fill="#6FCF97"/>
</g>
<path d="M154.119 275.239C165.48 266.775 170.263 255.706 191.788 255.706C213.314 255.706 215.203 268.728 228.262 268.728C243.807 268.728 258.756 243.335 275.497 243.335C292.239 243.335 296.425 256.357 305.393 257.008" stroke="black" stroke-opacity="0.1" stroke-width="2" stroke-linecap="round" stroke-linejoin="round"/>
<path d="M153.522 275.891C164.882 267.426 167.872 242.684 189.397 242.684C210.922 242.684 215.801 264.171 228.86 264.171C244.406 264.171 258.158 229.011 274.9 229.011C291.642 229.011 297.023 256.357 305.992 257.008" stroke="white" stroke-width="2" stroke-linecap="round" stroke-linejoin="round"/>
<defs>
<filter id="filter0_d" x="388.926" y="51.1675" width="170.898" height="170.898" filterUnits="userSpaceOnUse" color-interpolation-filters="sRGB">
<feFlood flood-opacity="0" result="BackgroundImageFix"/>
<feColorMatrix in="SourceAlpha" type="matrix" values="0 0 0 0 0 0 0 0 0 0 0 0 0 0 0 0 0 0 127 0" result="hardAlpha"/>
<feOffset/>
<feGaussianBlur stdDeviation="25"/>
<feColorMatrix type="matrix" values="0 0 0 0 0.0627451 0 0 0 0 0.439216 0 0 0 0 0.694118 0 0 0 0.25 0"/>
<feBlend mode="normal" in2="BackgroundImageFix" result="effect1_dropShadow"/>
<feBlend mode="normal" in="SourceGraphic" in2="effect1_dropShadow" result="shape"/>
</filter>
<filter id="filter1_d" x="391.172" y="4" width="63.1433" height="58.4133" filterUnits="userSpaceOnUse" color-interpolation-filters="sRGB">
<feFlood flood-opacity="0" result="BackgroundImageFix"/>
<feColorMatrix in="SourceAlpha" type="matrix" values="0 0 0 0 0 0 0 0 0 0 0 0 0 0 0 0 0 0 127 0" result="hardAlpha"/>
<feOffset dx="5" dy="5"/>
<feGaussianBlur stdDeviation="7.5"/>
<feColorMatrix type="matrix" values="0 0 0 0 0 0 0 0 0 0 0 0 0 0 0 0 0 0 0.15 0"/>
<feBlend mode="normal" in2="BackgroundImageFix" result="effect1_dropShadow"/>
<feBlend mode="normal" in="SourceGraphic" in2="effect1_dropShadow" result="shape"/>
</filter>
<filter id="filter2_d" x="531.245" y="75.6311" width="63.1433" height="58.4133" filterUnits="userSpaceOnUse" color-interpolation-filters="sRGB">
<feFlood flood-opacity="0" result="BackgroundImageFix"/>
<feColorMatrix in="SourceAlpha" type="matrix" values="0 0 0 0 0 0 0 0 0 0 0 0 0 0 0 0 0 0 127 0" result="hardAlpha"/>
<feOffset dx="5" dy="5"/>
<feGaussianBlur stdDeviation="7.5"/>
<feColorMatrix type="matrix" values="0 0 0 0 0 0 0 0 0 0 0 0 0 0 0 0 0 0 0.15 0"/>
<feBlend mode="normal" in2="BackgroundImageFix" result="effect1_dropShadow"/>
<feBlend mode="normal" in="SourceGraphic" in2="effect1_dropShadow" result="shape"/>
</filter>
<filter id="filter3_d" x="354" y="75.6311" width="63.1433" height="58.4133" filterUnits="userSpaceOnUse" color-interpolation-filters="sRGB">
<feFlood flood-opacity="0" result="BackgroundImageFix"/>
<feColorMatrix in="SourceAlpha" type="matrix" values="0 0 0 0 0 0 0 0 0 0 0 0 0 0 0 0 0 0 127 0" result="hardAlpha"/>
<feOffset dx="5" dy="5"/>
<feGaussianBlur stdDeviation="7.5"/>
<feColorMatrix type="matrix" values="0 0 0 0 0 0 0 0 0 0 0 0 0 0 0 0 0 0 0.15 0"/>
<feBlend mode="normal" in2="BackgroundImageFix" result="effect1_dropShadow"/>
<feBlend mode="normal" in="SourceGraphic" in2="effect1_dropShadow" result="shape"/>
</filter>
<filter id="filter4_d" x="494.185" y="4" width="63.1433" height="58.4133" filterUnits="userSpaceOnUse" color-interpolation-filters="sRGB">
<feFlood flood-opacity="0" result="BackgroundImageFix"/>
<feColorMatrix in="SourceAlpha" type="matrix" values="0 0 0 0 0 0 0 0 0 0 0 0 0 0 0 0 0 0 127 0" result="hardAlpha"/>
<feOffset dx="5" dy="5"/>
<feGaussianBlur stdDeviation="7.5"/>
<feColorMatrix type="matrix" values="0 0 0 0 0 0 0 0 0 0 0 0 0 0 0 0 0 0 0.15 0"/>
<feBlend mode="normal" in2="BackgroundImageFix" result="effect1_dropShadow"/>
<feBlend mode="normal" in="SourceGraphic" in2="effect1_dropShadow" result="shape"/>
</filter>
<filter id="filter5_d" x="11" y="104.857" width="116.863" height="85.1111" filterUnits="userSpaceOnUse" color-interpolation-filters="sRGB">
<feFlood flood-opacity="0" result="BackgroundImageFix"/>
<feColorMatrix in="SourceAlpha" type="matrix" values="0 0 0 0 0 0 0 0 0 0 0 0 0 0 0 0 0 0 127 0" result="hardAlpha"/>
<feOffset dx="5" dy="5"/>
<feGaussianBlur stdDeviation="5"/>
<feColorMatrix type="matrix" values="0 0 0 0 0.0627451 0 0 0 0 0.439216 0 0 0 0 0.694118 0 0 0 0.2 0"/>
<feBlend mode="normal" in2="BackgroundImageFix" result="effect1_dropShadow"/>
<feBlend mode="normal" in="SourceGraphic" in2="effect1_dropShadow" result="shape"/>
</filter>
<filter id="filter6_d" x="127.976" y="210.64" width="204.16" height="102.04" filterUnits="userSpaceOnUse" color-interpolation-filters="sRGB">
<feFlood flood-opacity="0" result="BackgroundImageFix"/>
<feColorMatrix in="SourceAlpha" type="matrix" values="0 0 0 0 0 0 0 0 0 0 0 0 0 0 0 0 0 0 127 0" result="hardAlpha"/>
<feOffset dy="4"/>
<feGaussianBlur stdDeviation="5"/>
<feColorMatrix type="matrix" values="0 0 0 0 0.435294 0 0 0 0 0.811765 0 0 0 0 0.592157 0 0 0 0.2 0"/>
<feBlend mode="normal" in2="BackgroundImageFix" result="effect1_dropShadow"/>
<feBlend mode="normal" in="SourceGraphic" in2="effect1_dropShadow" result="shape"/>
</filter>
<linearGradient id="paint0_linear" x1="302.314" y1="-84.9987" x2="271.841" y2="455.458" gradientUnits="userSpaceOnUse">
<stop stop-color="#D1ECFF"/>
<stop offset="1" stop-color="#1070B1"/>
</linearGradient>
<linearGradient id="paint1_linear" x1="33.212" y1="166.055" x2="399.223" y2="202.912" gradientUnits="userSpaceOnUse">
<stop offset="0.127122" stop-color="white"/>
<stop offset="0.972261" stop-color="white" stop-opacity="0.8"/>
</linearGradient>
<clipPath id="clip0">
<rect width="19.3358" height="16.6908" fill="white" transform="translate(371.251 91.1951)"/>
</clipPath>
<clipPath id="clip1">
<rect width="57.4004" height="62.5066" fill="white" transform="translate(155.914 118.973)"/>
</clipPath>
</defs>
</svg>
