<svg width="554" height="468" viewBox="0 0 554 468" fill="none" xmlns="http://www.w3.org/2000/svg">
<path opacity="0.4" d="M502.917 25.964C386.277 -29.54 334.826 122.239 254.396 147.212C174.036 183.747 96.5492 140.984 48.7035 177.641C-27.137 235.745 6.15026 337.394 54.7019 380.164C124.328 441.498 248.058 419.423 375.949 353.103C536.18 270.013 605.19 74.6316 502.917 25.964Z" fill="#98C3E8"/>
<path opacity="0.2" d="M115.308 86.4607C119.336 96.5315 107.252 112.242 89.9299 117.479C75.0252 121.985 60.5234 121.507 56.4951 111.033C52.9315 101.768 64.1488 91.6975 77.0394 86.4607C89.9299 81.224 111.28 76.39 115.308 86.4607Z" fill="#98C3E8"/>
<path opacity="0.2" d="M247.033 65.9163C243.898 57.9083 254.941 39.2214 268.626 35.1389C280.402 31.6261 291.434 23.3482 294.567 31.6758C297.338 39.0424 288.853 55.7042 278.663 59.8053C268.473 63.9064 250.168 73.9242 247.033 65.9163Z" fill="#98C3E8"/>
<path opacity="0.2" d="M238.004 462.474C234.869 454.466 244.468 442.051 258.153 437.969C269.929 434.456 281.366 434.896 284.499 443.223C287.271 450.59 278.38 458.534 268.19 462.635C258 466.736 241.138 470.482 238.004 462.474Z" fill="#98C3E8"/>
<path opacity="0.2" d="M379.623 421.655C373.101 406.323 393.888 372.256 422.323 364.453C446.79 357.739 486.299 371.471 492.817 387.414C498.584 401.518 460.817 399.185 439.645 407.027C418.473 414.868 386.144 436.986 379.623 421.655Z" fill="#98C3E8"/>
<mask id="mask0" mask-type="alpha" maskUnits="userSpaceOnUse" x="16" y="16" width="522" height="396">
<path d="M488.7 27.2C375.447 -22.8116 330.05 124.31 253.592 150.53C177.5 187.844 102.11 148.967 57.1912 185.489C-14.0101 243.381 20.5311 340.015 68.1821 379.709C136.516 436.632 254.56 411.983 375.447 344.749C526.903 260.515 588.004 71.0517 488.7 27.2Z" fill="#98C3E8"/>
</mask>
<g mask="url(#mask0)">
<rect x="-68.8521" y="-48.1636" width="648.685" height="549.044" fill="url(#paint0_linear)"/>
<path d="M12.9963 126.717C72.476 156.711 139.073 240.667 139.073 280.755C139.073 330.067 34.5174 405.645 -13.4392 448.518L395.802 474.953C381.229 409.712 344.433 264.672 366.825 232.459C395.802 190.772 513.067 200.94 578.817 208.565L596.61 23.0088C564.582 36.396 492.902 74.863 453.757 64.6955C417.523 55.2841 348.015 14.7054 318.529 -11.0522" stroke="white" stroke-opacity="0.2" stroke-width="15"/>
<path d="M166.017 80.9636C182.285 165.693 226.514 321.018 273.284 264.487C331.747 193.823 378.009 102.315 421.729 162.812C456.705 211.209 508.153 306.682 529.505 348.368" stroke="white" stroke-opacity="0.2" stroke-width="15"/>
<path fill-rule="evenodd" clip-rule="evenodd" d="M349.352 130.369C349.352 133.928 346.466 136.814 342.907 136.814C339.347 136.814 336.461 133.928 336.461 130.369C336.461 126.809 339.347 123.924 342.907 123.924C346.466 123.924 349.352 126.809 349.352 130.369ZM82.6787 269.748C86.2383 269.748 89.1239 266.862 89.1239 263.303C89.1239 259.743 86.2383 256.857 82.6787 256.857C79.119 256.857 76.2334 259.743 76.2334 263.303C76.2334 266.862 79.119 269.748 82.6787 269.748ZM222.863 351.925C226.423 351.925 229.309 349.039 229.309 345.48C229.309 341.92 226.423 339.034 222.863 339.034C219.304 339.034 216.418 341.92 216.418 345.48C216.418 349.039 219.304 351.925 222.863 351.925ZM443.614 256.857C447.173 256.857 450.059 253.972 450.059 250.412C450.059 246.852 447.173 243.967 443.614 243.967C440.054 243.967 437.169 246.852 437.169 250.412C437.169 253.972 440.054 256.857 443.614 256.857Z" fill="white" fill-opacity="0.6"/>
<circle cx="58.5089" cy="333.395" r="13.7245" stroke="white" stroke-opacity="0.4" stroke-width="8"/>
<circle cx="525.791" cy="110.227" r="13.7245" stroke="white" stroke-opacity="0.4" stroke-width="8"/>
<circle cx="324.376" cy="297.946" r="13.7245" stroke="white" stroke-opacity="0.4" stroke-width="8"/>
</g>
<g filter="url(#filter0_d)">
<path d="M244.793 20H222.694C219.644 20 217.172 22.1194 217.172 24.7338V43.6796C217.172 46.294 219.644 48.4133 222.694 48.4133H244.793C247.843 48.4133 250.315 46.294 250.315 43.6796V24.7338C250.315 22.1194 247.843 20 244.793 20Z" fill="#56CCF2"/>
</g>
<path d="M242.036 33.2136H238.676L241.287 30.9604L240.151 29.9728L236.396 33.2136H234.785V31.8227L238.539 28.5819L237.395 27.6014L234.785 29.8546V26.9546H233.174V29.8546L230.563 27.6014L229.419 28.5819L233.174 31.8227V33.2136H231.562L227.808 29.9728L226.672 30.9604L229.282 33.2136H225.923V34.6045H229.282L226.672 36.8578L227.808 37.8453L231.562 34.6045H233.174V35.9954L229.419 39.2362L230.563 40.2168L233.174 37.9635V40.8636H234.785V37.9635L237.395 40.2168L238.539 39.2362L234.785 35.9954V34.6045H236.396L240.151 37.8453L241.287 36.8578L238.676 34.6045H242.036V33.2136Z" fill="white"/>
<g filter="url(#filter1_d)">
<path d="M384.866 91.6311H362.767C359.717 91.6311 357.245 93.7505 357.245 96.3649V115.311C357.245 117.925 359.717 120.044 362.767 120.044H384.866C387.916 120.044 390.388 117.925 390.388 115.311V96.3649C390.388 93.7505 387.916 91.6311 384.866 91.6311Z" fill="#F2C94C"/>
</g>
<path d="M381.415 103.454C381.415 99.9769 378.192 97.1951 374.164 97.1951C370.135 97.1951 366.913 99.9769 366.913 103.454C366.913 105.61 368.202 107.557 370.135 108.67V110.409C370.135 111.313 370.78 112.078 371.747 112.356V112.495C371.747 113.677 372.794 114.581 374.164 114.581C375.533 114.581 376.581 113.677 376.581 112.495V112.356C377.548 112.078 378.192 111.313 378.192 110.409V108.67C380.126 107.557 381.415 105.61 381.415 103.454ZM368.524 103.454C368.524 100.742 371.022 98.586 374.164 98.586C377.306 98.586 379.803 100.742 379.803 103.454C379.803 105.888 377.709 107.905 374.969 108.253V106.514L376.339 105.332C376.661 105.054 376.661 104.636 376.339 104.358C376.017 104.08 375.533 104.08 375.211 104.358L374.164 105.262L373.116 104.358C372.794 104.08 372.311 104.08 371.988 104.358C371.666 104.636 371.666 105.054 371.988 105.332L373.358 106.514V108.253C370.619 107.905 368.524 105.888 368.524 103.454ZM374.164 113.19C373.68 113.19 373.358 112.912 373.358 112.495H374.969C374.969 112.912 374.647 113.19 374.164 113.19ZM376.581 110.409C376.581 110.826 376.258 111.104 375.775 111.104H372.552C372.069 111.104 371.747 110.826 371.747 110.409V109.365C372.472 109.574 373.278 109.713 374.164 109.713C375.05 109.713 375.856 109.574 376.581 109.365V110.409Z" fill="white"/>
<g filter="url(#filter2_d)">
<path d="M207.622 91.6311H185.522C182.472 91.6311 180 93.7505 180 96.3649V115.311C180 117.925 182.472 120.044 185.522 120.044H207.622C210.671 120.044 213.143 117.925 213.143 115.311V96.3649C213.143 93.7505 210.671 91.6311 207.622 91.6311Z" fill="#F58A8A"/>
</g>
<g clip-path="url(#clip0)">
<path d="M201.753 102.759H200.947V101.368C200.947 99.4484 199.142 97.8906 196.919 97.8906C194.695 97.8906 192.89 99.4484 192.89 101.368V102.759H192.085C191.198 102.759 190.473 103.385 190.473 104.15V111.104C190.473 111.869 191.198 112.495 192.085 112.495H201.753C202.639 112.495 203.364 111.869 203.364 111.104V104.15C203.364 103.385 202.639 102.759 201.753 102.759ZM196.919 109.018C196.032 109.018 195.307 108.392 195.307 107.627C195.307 106.862 196.032 106.236 196.919 106.236C197.805 106.236 198.53 106.862 198.53 107.627C198.53 108.392 197.805 109.018 196.919 109.018ZM199.416 102.759H194.421V101.368C194.421 100.179 195.541 99.212 196.919 99.212C198.296 99.212 199.416 100.179 199.416 101.368V102.759Z" fill="white"/>
</g>
<g filter="url(#filter3_d)">
<path d="M347.806 20H325.706C322.657 20 320.185 22.1194 320.185 24.7338V43.6796C320.185 46.294 322.657 48.4133 325.706 48.4133H347.806C350.856 48.4133 353.328 46.294 353.328 43.6796V24.7338C353.328 22.1194 350.856 20 347.806 20Z" fill="#6FCF97"/>
</g>
<path d="M341.382 30.3596H328.225V37.4579H341.382V30.3596Z" fill="white"/>
<path d="M344.928 31.7722L342.024 32.8259V35.0218L344.928 36.0755H345.982V31.7722H344.928Z" fill="white"/>
<path d="M278.315 149.028C277.415 152.544 278.634 154.571 279.593 155.071C281.496 156.062 283.621 157.302 283.621 157.302C283.621 157.302 296.858 179.977 300.694 181.6C305.17 183.493 315.4 184.477 315.4 184.477L319.876 175.526C319.876 175.526 309.646 173.288 305.17 172.328C302.154 171.682 288.865 157.302 288.865 157.302L291.423 152.826H286.627C283.11 150.269 281.205 145 281.205 145C281.205 145 278.929 146.627 278.315 149.028Z" fill="url(#paint1_linear)"/>
<path d="M330.753 189.714C329.142 188.103 319.876 185.552 315.445 184.478L319.876 175.615C321.622 175.615 326.725 175.212 333.17 173.601C341.226 171.587 344.046 164.336 353.311 171.99C360.723 178.113 373.587 204.888 379.092 217.51C370.435 225.762 364.684 228.441 353.311 230.803C352.64 229.46 350.653 224.922 348.074 217.51C344.852 208.244 334.781 208.244 333.17 205.022C331.558 201.799 332.767 191.728 330.753 189.714Z" fill="url(#paint2_linear)"/>
<path d="M359.757 281.157C356.856 274.711 356.802 244.096 355.728 229.997C365.552 228.066 370.741 225.579 379.092 217.107C379.092 217.107 392.789 223.552 391.983 238.457C391.177 253.361 397.236 260.887 400.845 265.849C404.068 270.28 411.722 279.68 415.75 285.991L411.722 293.644C407.29 288.945 394.319 279.384 387.552 273.906C380.784 268.427 378.555 254.704 377.481 247.319C376.81 255.107 373.453 269.394 375.064 273.906C376.675 278.417 393.997 292.033 400.845 298.881L398.428 305.729C386.746 300.224 362.657 287.602 359.757 281.157Z" fill="url(#paint3_linear)"/>
<path d="M325.919 162.322C326.241 161.033 325.785 157.219 326.322 155.876C330.189 156.521 332.364 159.233 333.17 160.308C333.975 160.173 335.131 159.799 335.587 160.71C335.99 161.516 335.587 163.127 334.378 164.336L337.198 171.99C335.862 172.858 335.048 173.149 333.573 173.601C334.378 171.587 333.975 169.975 333.573 169.17C330.672 171.426 329.544 171.318 328.336 171.184L327.127 165.947L325.113 166.35C325.516 165.679 325.597 163.611 325.919 162.322Z" fill="url(#paint4_linear)"/>
<path d="M333.17 160.308C331.558 158.052 327.664 156.414 325.919 155.876C322.696 153.459 324.307 148.223 331.961 145.806C339.615 143.389 342.838 149.834 344.449 151.445C346.06 153.057 346.866 158.293 354.117 161.516C361.368 164.739 360.965 160.71 365.396 160.71C369.827 160.71 371.841 163.53 371.036 165.947C370.23 168.364 369.827 171.184 374.661 174.407C379.495 177.629 375.064 182.06 374.661 186.894C374.258 191.728 367.813 189.311 360.965 189.311C354.117 189.311 355.325 189.311 354.117 184.88C352.908 180.449 350.894 178.838 348.477 177.629C346.06 176.421 340.421 177.226 339.212 176.018C338.245 175.051 335.587 167.827 334.378 164.336C334.915 163.53 335.909 161.677 335.587 160.71C335.264 159.744 333.841 160.039 333.17 160.308Z" fill="#F2994A"/>
<path d="M317.862 209.05L337.198 207.842C339.454 208.164 343.241 210.93 344.852 212.273C344.315 213.481 342.757 215.898 340.824 215.898C338.89 215.898 324.71 213.481 317.862 212.273H316.251V206.23L317.862 209.05Z" fill="url(#paint5_linear)"/>
<path d="M316.251 215.092V201.396H309.403V215.092H316.251Z" fill="#F2C94C"/>
<path d="M411.721 317.008C409.788 316.686 401.919 309.22 398.428 305.729L400.845 298.881C402.456 299.552 405.84 300.734 406.485 301.701C407.29 302.909 414.138 317.411 411.721 317.008Z" fill="#5A98D0"/>
<path d="M421.389 308.146C420.422 306.535 414.541 298.747 411.721 293.644L415.75 285.99C417.63 287.602 417.764 287.602 419.778 290.422C420.714 291.733 422.598 310.16 421.389 308.146Z" fill="#5A98D0"/>
<path opacity="0.2" d="M379.898 235.637L377.481 247.722C377.884 252.153 380.301 263.029 384.329 270.683C379.495 255.376 381.106 243.962 379.898 235.637Z" fill="black"/>
<path d="M293.087 327.554L291.879 323.526L298.324 322.317C301.413 323.928 307.348 327.473 306.381 328.762C306.059 329.407 297.384 328.225 293.087 327.554Z" fill="#D06262"/>
<path d="M260.458 289.688L264.084 295.73C263.815 299.893 262.956 308.057 261.667 307.412C260.378 306.768 256.296 296.402 254.416 291.299L260.458 289.688Z" fill="#D06262"/>
<path d="M239.373 253.428C235.079 248.969 231.178 240.563 229.764 236.917C233.895 234.919 243.076 230.353 246.75 228.073C250.423 225.794 257.391 220.622 260.416 218.321C262.18 219.912 267.314 223.836 273.736 226.805C290.229 234.592 299.649 244.648 302.905 253.653C305.509 260.856 294.839 271.52 288.778 275.988C285.266 270.019 283.152 267.605 278.989 261.92L280.404 255.318L272.086 252.846C273.316 254.486 277.346 259.887 283.627 268.371C294.963 282.538 298.888 306.746 299.434 317.078C297.32 317.543 292.112 318.399 288.203 318.112C287.741 313.092 281.453 301.943 275.449 292.072C274.227 293.534 272.534 295.281 271.548 295.372C266.557 293.889 265.011 287.343 264.862 284.255L268.634 281.096C268.117 280.27 267.633 279.496 267.19 278.782C261.016 268.832 244.74 259.002 239.373 253.428Z" fill="#1F3F68"/>
<path d="M261.946 217.371C250.237 226.404 225.999 242.603 222.723 235.138C218.628 225.805 219.431 225.732 217.167 223.108C214.903 220.485 214.349 214.468 213.326 212.135C212.811 210.962 208.663 205.833 205.347 199.519C205.347 199.519 205.248 199.336 205.079 199.002C202.725 194.408 200.866 189.239 201.172 184.531C201.406 177.632 206.653 173.183 206.653 173.183C209.781 169.849 212.714 169.289 213.73 169.379L213.749 169.391C216.194 171.054 219.809 173.512 221.089 173.395C222.373 173.277 224.204 170.853 225.412 169.645C231.54 170.295 233.411 168.725 238.201 169.379C244.108 170.184 260.055 178.507 272.543 156.352C273.784 156.642 276.58 157.745 278.586 157.56C271.738 177.702 265.695 183.97 260.055 185.944C255.727 187.46 252.317 187.882 249.623 187.854C249.129 190.482 248.472 194.801 247.377 199.206C249.628 203.327 252.008 207.112 253.877 208.809C258.733 213.217 264.215 215.65 261.946 217.371Z" fill="white"/>
<path d="M261.716 241.26L272.524 253.211L280.404 255.318L279.934 259.002C281.743 256.678 284.061 251.098 278.864 247.369C273.667 243.64 265.267 241.742 261.716 241.26Z" fill="black" fill-opacity="0.2"/>
<path d="M268.615 281.078L275.301 292.195L274.208 293.509C273.221 291.577 270.63 289.793 268.44 287.971C266.688 286.514 266.32 283.986 266.356 282.904L268.615 281.078Z" fill="black" fill-opacity="0.2"/>
<path d="M237.551 220.424C226.112 219.211 212.202 207.249 206.677 201.42C219.453 212.785 234.3 215.869 239.003 214.223C242.765 212.906 245.65 203.102 247.165 199.052L250.225 204.291C250.766 210.174 248.989 221.638 237.551 220.424Z" fill="black" fill-opacity="0.2"/>
<path d="M233.442 197.744C230.906 198.208 224.343 192.648 221.398 189.952C232.239 197.855 232.26 193.815 245.956 184.147C245.362 185.011 239.511 196.635 233.442 197.744Z" fill="black" fill-opacity="0.2"/>
<path d="M249.985 186.161C248.605 185.884 247.404 185.417 245.957 184.147L247.165 181.327C247.031 180.655 246.843 179.152 247.165 178.507C247.487 177.863 248.776 177.164 249.179 176.896L248.776 178.91L250.79 176.493L254.013 179.313L253.61 182.133L251.193 183.341L249.985 186.161Z" fill="#F2994A"/>
<path d="M279.391 153.532L278.586 157.56C277.297 157.882 273.886 156.889 272.543 156.351C272.946 155.143 274.235 151.92 274.557 150.309C274.88 148.698 277.914 146.952 279.391 146.281H281.003L279.391 149.101V153.532Z" fill="#F2994A"/>
<path d="M211.716 161.186C212.36 162.475 214.133 165.214 214.938 166.422C215.476 165.348 216.228 162.958 214.938 161.991C213.649 161.024 212.521 159.44 212.119 158.769C212.521 158.5 213.569 157.963 214.536 157.963C213.891 153.129 217.221 151.383 218.967 151.115L225.815 150.712L226.218 152.726C228.769 150.309 233.388 145.072 231.454 143.461C229.037 141.447 221.787 146.684 216.953 146.684C212.119 146.684 210.104 149.101 208.896 151.518C207.688 153.935 210.91 159.574 211.716 161.186Z" fill="#316099"/>
<path d="M220.981 173.673C219.692 173.673 216.013 171.122 213.73 169.645C214.804 169.108 215.342 167.067 215.342 166.422C215.342 165.617 216.147 162.394 215.342 161.991C214.536 161.588 212.119 159.977 212.119 159.171C212.119 158.527 213.73 158.366 214.536 158.366C214.267 157.023 214.214 153.935 216.147 152.323C218.081 150.712 223.398 150.578 225.815 150.712C225.949 151.249 226.46 153.532 227.426 158.366C228.393 163.2 226.218 165.482 225.009 166.019L225.412 169.645C224.472 170.853 222.27 173.673 220.981 173.673Z" fill="#F2994A"/>
<path d="M298.324 322.317L297.921 317.483C295.077 318.246 293.387 318.38 290.268 318.289L291.879 323.526L298.324 322.317Z" fill="#98C3E8"/>
<path d="M264.084 295.731L268.918 294.119C266.76 291.64 266.034 290.226 265.292 287.674L260.458 289.688L264.084 295.731Z" fill="#98C3E8"/>
<defs>
<filter id="filter0_d" x="207.172" y="10" width="63.1433" height="58.4133" filterUnits="userSpaceOnUse" color-interpolation-filters="sRGB">
<feFlood flood-opacity="0" result="BackgroundImageFix"/>
<feColorMatrix in="SourceAlpha" type="matrix" values="0 0 0 0 0 0 0 0 0 0 0 0 0 0 0 0 0 0 127 0" result="hardAlpha"/>
<feOffset dx="5" dy="5"/>
<feGaussianBlur stdDeviation="7.5"/>
<feColorMatrix type="matrix" values="0 0 0 0 0 0 0 0 0 0 0 0 0 0 0 0 0 0 0.15 0"/>
<feBlend mode="normal" in2="BackgroundImageFix" result="effect1_dropShadow"/>
<feBlend mode="normal" in="SourceGraphic" in2="effect1_dropShadow" result="shape"/>
</filter>
<filter id="filter1_d" x="347.245" y="81.6311" width="63.1433" height="58.4133" filterUnits="userSpaceOnUse" color-interpolation-filters="sRGB">
<feFlood flood-opacity="0" result="BackgroundImageFix"/>
<feColorMatrix in="SourceAlpha" type="matrix" values="0 0 0 0 0 0 0 0 0 0 0 0 0 0 0 0 0 0 127 0" result="hardAlpha"/>
<feOffset dx="5" dy="5"/>
<feGaussianBlur stdDeviation="7.5"/>
<feColorMatrix type="matrix" values="0 0 0 0 0 0 0 0 0 0 0 0 0 0 0 0 0 0 0.15 0"/>
<feBlend mode="normal" in2="BackgroundImageFix" result="effect1_dropShadow"/>
<feBlend mode="normal" in="SourceGraphic" in2="effect1_dropShadow" result="shape"/>
</filter>
<filter id="filter2_d" x="170" y="81.6311" width="63.1433" height="58.4133" filterUnits="userSpaceOnUse" color-interpolation-filters="sRGB">
<feFlood flood-opacity="0" result="BackgroundImageFix"/>
<feColorMatrix in="SourceAlpha" type="matrix" values="0 0 0 0 0 0 0 0 0 0 0 0 0 0 0 0 0 0 127 0" result="hardAlpha"/>
<feOffset dx="5" dy="5"/>
<feGaussianBlur stdDeviation="7.5"/>
<feColorMatrix type="matrix" values="0 0 0 0 0 0 0 0 0 0 0 0 0 0 0 0 0 0 0.15 0"/>
<feBlend mode="normal" in2="BackgroundImageFix" result="effect1_dropShadow"/>
<feBlend mode="normal" in="SourceGraphic" in2="effect1_dropShadow" result="shape"/>
</filter>
<filter id="filter3_d" x="310.185" y="10" width="63.1433" height="58.4133" filterUnits="userSpaceOnUse" color-interpolation-filters="sRGB">
<feFlood flood-opacity="0" result="BackgroundImageFix"/>
<feColorMatrix in="SourceAlpha" type="matrix" values="0 0 0 0 0 0 0 0 0 0 0 0 0 0 0 0 0 0 127 0" result="hardAlpha"/>
<feOffset dx="5" dy="5"/>
<feGaussianBlur stdDeviation="7.5"/>
<feColorMatrix type="matrix" values="0 0 0 0 0 0 0 0 0 0 0 0 0 0 0 0 0 0 0.15 0"/>
<feBlend mode="normal" in2="BackgroundImageFix" result="effect1_dropShadow"/>
<feBlend mode="normal" in="SourceGraphic" in2="effect1_dropShadow" result="shape"/>
</filter>
<linearGradient id="paint0_linear" x1="302.314" y1="-84.9987" x2="271.841" y2="455.458" gradientUnits="userSpaceOnUse">
<stop stop-color="#D1ECFF"/>
<stop offset="1" stop-color="#1070B1"/>
</linearGradient>
<linearGradient id="paint1_linear" x1="326.126" y1="155.132" x2="284.416" y2="182.378" gradientUnits="userSpaceOnUse">
<stop stop-color="#FFF8E1"/>
<stop offset="1" stop-color="#FFCC80"/>
</linearGradient>
<linearGradient id="paint2_linear" x1="347.269" y1="168.558" x2="347.269" y2="230.803" gradientUnits="userSpaceOnUse">
<stop stop-color="#AF6CED"/>
<stop offset="1" stop-color="#5E199D"/>
</linearGradient>
<linearGradient id="paint3_linear" x1="385.739" y1="217.107" x2="385.739" y2="305.729" gradientUnits="userSpaceOnUse">
<stop stop-color="#EB5757"/>
<stop offset="1" stop-color="#872727"/>
</linearGradient>
<linearGradient id="paint4_linear" x1="339.002" y1="160.425" x2="324.402" y2="166.555" gradientUnits="userSpaceOnUse">
<stop stop-color="#FFF8E1"/>
<stop offset="1" stop-color="#FFCC80"/>
</linearGradient>
<linearGradient id="paint5_linear" x1="349.121" y1="208.711" x2="339.71" y2="225.855" gradientUnits="userSpaceOnUse">
<stop stop-color="#FFF8E1"/>
<stop offset="1" stop-color="#FFCC80"/>
</linearGradient>
<clipPath id="clip0">
<rect width="19.3358" height="16.6908" fill="white" transform="translate(187.251 97.1951)"/>
</clipPath>
</defs>
</svg>
